<svg xmlns="http://www.w3.org/2000/svg" enable-background="new 0 0 24 24" viewBox="0 0 24 24"><path fill="#303c42" d="M22,12.413V3c0-1.103-0.897-2-2-2H3C1.897,1,1,1.897,1,3v17c0,1.103,0.897,2,2,2h9.413   c1.051,0.631,2.275,1,3.587,1c3.859,0,7-3.14,7-7C23,14.688,22.631,13.464,22,12.413z"/><path fill="#546e7a" d="M21,3v8.111C19.728,9.81,17.958,9,16,9c-1.487,0-2.865,0.47-4,1.264V2h8C20.552,2,21,2.449,21,3z"/><linearGradient id="a" x1="9.942" x2="18.997" y1="4.058" y2="13.113" gradientUnits="userSpaceOnUse"><stop offset="0" stop-opacity=".1"/><stop offset="1" stop-opacity="0"/></linearGradient><path fill="url(#a)" d="M21,11.111v-0.142L12.031,2H12v8.264C13.135,9.47,14.513,9,16,9   C17.958,9,19.728,9.81,21,11.111z"/><path fill="#90a4ae" d="M3,2h8v9H2V3C2,2.449,2.448,2,3,2z"/><path fill="#546e7a" d="M3,21c-0.552,0-1-0.449-1-1v-8h8.264C9.47,13.135,9,14.513,9,16c0,1.958,0.81,3.728,2.111,5H3z"/><circle cx="16" cy="16" r="6" fill="#ff8f00"/><path fill="#303c42" d="M4.5 7H6v1.5C6 8.776 6.224 9 6.5 9S7 8.776 7 8.5V7h1.5C8.776 7 9 6.776 9 6.5S8.776 6 8.5 6H7V4.5C7 4.224 6.776 4 6.5 4S6 4.224 6 4.5V6H4.5C4.224 6 4 6.224 4 6.5S4.224 7 4.5 7zM14.5 7h4C18.776 7 19 6.776 19 6.5S18.776 6 18.5 6h-4C14.224 6 14 6.224 14 6.5S14.224 7 14.5 7zM8.354 14.646c-.195-.195-.512-.195-.707 0L6.5 15.793l-1.146-1.146c-.195-.195-.512-.195-.707 0s-.195.512 0 .707L5.793 16.5l-1.146 1.146c-.195.195-.195.512 0 .707C4.744 18.451 4.872 18.5 5 18.5s.256-.049.354-.146L6.5 17.207l1.146 1.146C7.744 18.451 7.872 18.5 8 18.5s.256-.049.354-.146c.195-.195.195-.512 0-.707L7.207 16.5l1.146-1.146C8.549 15.158 8.549 14.842 8.354 14.646zM18.5 14h-5c-.276 0-.5.224-.5.5s.224.5.5.5h5c.276 0 .5-.224.5-.5S18.776 14 18.5 14zM18.5 17h-5c-.276 0-.5.224-.5.5s.224.5.5.5h5c.276 0 .5-.224.5-.5S18.776 17 18.5 17z"/><linearGradient id="b" x1="-.55" x2="23.264" y1="5.881" y2="16.985" gradientUnits="userSpaceOnUse"><stop offset="0" stop-color="#fff" stop-opacity=".2"/><stop offset="1" stop-color="#fff" stop-opacity="0"/></linearGradient><path fill="url(#b)" d="M22,12.413V3c0-1.103-0.897-2-2-2H3C1.897,1,1,1.897,1,3v17c0,1.103,0.897,2,2,2h9.413   c1.051,0.631,2.275,1,3.587,1c3.859,0,7-3.14,7-7C23,14.688,22.631,13.464,22,12.413z"/></svg>